# AST/ASF file generated using VICON BodyLanguage
# -----------------------------------------------
:version 1.10
:name VICON
:units
  mass 1.0
  length 0.45
  angle deg
:documentation
   .ast/.asf automatically generated from VICON data using
   VICON BodyBuilder and BodyLanguage model FoxedUp or BRILLIANT.MOD
:root
   order TX TY TZ RX RY RZ
   axis XYZ
   position 0 0 0  
   orientation 0 0 0 
:bonedata
  begin
     id 1 
     name lhipjoint
     direction 0.575328 -0.747301 0.332475 
     length 2.40933 
     axis 0 0 0  XYZ
  end
  begin
     id 2 
     name lfemur
     direction 0.34202 -0.939693 0  
     length 7.31453  
     axis 0 0 20  XYZ
    dof rx ry rz
    limits (-160.0 20.0)
           (-70.0 70.0)
           (-60.0 70.0)
  end
  begin
     id 3 
     name ltibia
     direction 0.34202 -0.939693 0   
     length 7.82185   
     axis 0 0 20   XYZ
    dof rx
    limits (-10.0 170.0)
  end
  begin
     id 4 
     name lfoot
     direction 0.0795993 -0.218697 0.972541   
     length 2.19173   
     axis -90 7.62852e-016 20   XYZ
    dof rx rz
    limits (-45.0 90.0)
           (-70.0 20.0)
  end
  begin
     id 5 
     name ltoes
     direction 1.53537e-011 -4.21894e-011 1   
     length 1.10023   
     axis -90 7.62852e-016 20   XYZ
    dof rx
    limits (-90.0 20.0)
  end
  begin
     id 6 
     name rhipjoint
     direction -0.513884 -0.783789 0.348708   
     length 2.29716  
     axis 0 0 0  XYZ 
  end
  begin
     id 7 
     name rfemur
     direction -0.34202 -0.939693 0   
     length 7.59573   
     axis 0 0 -20   XYZ
    dof rx ry rz
    limits (-160.0 20.0)
           (-70.0 70.0)
           (-70.0 60.0)
  end
  begin
     id 8 
     name rtibia
     direction -0.34202 -0.939693 0   
     length 7.66402   
     axis 0 0 -20   XYZ
    dof rx
    limits (-10.0 170.0)
 end
 begin
     id 9 
     name rfoot
     direction -0.137793 -0.378584 0.915253   
     length 2.27056  
     axis -90 -7.62852e-016 -20   XYZ
    dof rx rz
    limits (-45.0 90.0)
           (-20.0 70.0)
  end
  begin
     id 10 
     name rtoes
     direction -1.53493e-011 -4.22159e-011 1   
     length 1.11766   
     axis -90 -7.62852e-016 -20   XYZ
    dof rx
    limits (-90.0 20.0)
  end
  begin
     id 11 
     name lowerback
     direction -0.00732775 0.998356 -0.05685   
     length 2.16513   
     axis 0 0 0   XYZ
    dof rx ry rz
    limits (-20.0 45.0)
           (-30.0 30.0)
           (-30.0 30.0)
  end
  begin
     id 12 
     name upperback
     direction 0.0218081 0.999627 -0.0164647   
     length 2.16755   
     axis 0 0 0   XYZ
    dof rx ry rz
    limits (-20.0 45.0)
           (-30.0 30.0)
           (-30.0 30.0)
  end
  begin
     id 13 
     name thorax
     direction 0.02365 0.999661 0.0108914   
     length 2.16932   
     axis 0 0 0   XYZ
    dof rx ry rz
    limits (-20.0 45.0)
           (-30.0 30.0)
           (-30.0 30.0)
  end
  begin
     id 14 
     name lowerneck
     direction -0.0523929 0.978385 0.200044   
     length 1.63877   
     axis 0 0 0   XYZ
    dof rx ry rz
    limits (-20.0 45.0)
           (-30.0 30.0)
           (-30.0 30.0)
  end
  begin
     id 15 
     name upperneck
     direction 0.0448674 0.981321 -0.187074   
     length 1.69014   
     axis 0 0 0   XYZ
    dof rx ry rz
    limits (-20.0 45.0)
           (-30.0 30.0)
           (-30.0 30.0)
  end
  begin
     id 16
     name head
     direction 0.0199089 0.996118 -0.0857429  
     length 1.70094  
     axis 0 0 0   XYZ
    dof rx ry rz
    limits (-20.0 45.0)
           (-30.0 30.0)
           (-30.0 30.0)
  end
  begin
     id 17 
     name lclavicle
     direction 0.940366 0.30191 -0.156722  
     length 3.37521  
     axis 0 0 0   XYZ
    dof ry rz
    limits (-20.0 10.0)
           (0.0 20.0)
  end
  begin
     id 18 
     name lhumerus
     direction 1 -4.4897e-011 -1.7911e-027   
     length 5.25287   
     axis 180 -30 -90   XYZ
    dof rx ry rz
    limits (-60.0 90.0)
           (-90.0 90.0)
           (-90.0 90.0)
  end
  begin
     id 19
     name lradius
     direction 1 -4.48951e-011 1.04424e-027   
     length 3.51014   
     axis 180 -30 -90   XYZ
    dof rx
    limits (-10.0 170.0)
  end
  begin
     id 20
     name lwrist
     direction 1 -4.48997e-011 -9.5942e-028   
     length 1.75507   
     axis 8.48502e-016 90 90   XYZ
    dof ry
    limits (-180.0 0.0)
 end
  begin
     id 21 
     name lhand
     direction 1 -4.48831e-011 -1.90777e-027   
     length 0.706179   
     axis 1.22306e-015 90 90   XYZ
    dof rx rz
    limits (-90.0 90.0)
           (-45.0 45.0)
  end
  begin
     id 22 
     name lfingers
     direction 1 -4.49108e-011 -3.85244e-027   
     length 0.569339   
     axis 2.44611e-015 90 90   XYZ
    dof rx
    limits (0.0 90.0)
  end
  begin
     id 23
     name lthumb
     direction 0.707107 -6.34953e-011 0.707107   
     length 0.817461   
     axis -90 45 -1.62303e-014   XYZ
    dof rx rz
    limits (-45.0 45.0)
           (-45.0 45.0)
  end
  begin
     id 24 
     name rclavicle
     direction -0.905329 0.382405 -0.184787   
     length 3.30787  
     axis 0 0 0   XYZ 
    dof ry rz
    limits (-10.0 20.0)
           (-20.0 0.0)
  end
  begin
     id 25 
     name rhumerus
     direction -1 -4.48953e-011 -9.15316e-029  
     length 5.28721   
     axis 180 30 90   XYZ
    dof rx ry rz
    limits (-90.0 60.0)
           (-90.0 90.0)
           (-90.0 90.0)
  end
  begin
     id 26 
     name rradius
     direction -1 -4.48987e-011 9.37824e-028   
     length 3.50544   
     axis 180 30 90   XYZ
    dof rx
    limits (-10.0 170.0)
  end
  begin
     id 27 
     name rwrist
     direction -1 -4.48967e-011 -9.58414e-028   
     length 1.75272   
     axis 8.48502e-016 -90 -90   XYZ
    dof ry
    limits (-180.0 0.0)
  end
  begin
     id 28
     name rhand
     direction -1 -4.48904e-011 -1.91266e-027   
     length 0.884996   
     axis 1.22306e-015 -90 -90   XYZ
    dof rx rz
    limits (-90.0 90.0)
           (-45.0 45.0)
  end
  begin
     id 29
     name rfingers
     direction -1 -4.4909e-011 -3.85015e-027   
     length 0.713507   
     axis 2.44611e-015 -90 -90   XYZ
    dof rx
    limits (0.0 90.0)
  end
  begin
     id 30
     name rthumb
     direction -0.707107 -6.34853e-011 0.707107   
     length 1.02446   
     axis -90 -45 1.62303e-014   XYZ
    dof rx rz
    limits (-45.0 45.0)
           (-45.0 45.0)
  end
:hierarchy
  begin
    root lhipjoint rhipjoint lowerback
    lhipjoint lfemur
    lfemur ltibia
    ltibia lfoot
    lfoot ltoes
    rhipjoint rfemur
    rfemur rtibia
    rtibia rfoot
    rfoot rtoes
    lowerback upperback
    upperback thorax
    thorax lowerneck lclavicle rclavicle
    lowerneck upperneck
    upperneck head
    lclavicle lhumerus
    lhumerus lradius
    lradius lwrist
    lwrist lhand lthumb
    lhand lfingers
    rclavicle rhumerus
    rhumerus rradius
    rradius rwrist
    rwrist rhand rthumb
    rhand rfingers
  end

#!OML:ASF F:\twosubjects\two\Thursday\Session 1\justin.ASF
:FULLY-SPECIFIED
:DEGREES
210
root 3.49551 17.2668 -18.5833 -167.937 10.7414 186.341
lowerback -1.23174 2.88634 2.1466
upperback 1.70903 3.8391 1.98702
thorax 2.44778 1.96982 0.96987
lowerneck -23.1417 -4.23062 -8.93053
upperneck 11.6918 -4.67111 10.5983
head 7.85374 -1.52614 4.40962
rclavicle -2.94326e-014 1.04362e-014
rhumerus -66.8041 -7.34306 -47.0014
rradius 15.9588
rwrist 40.244
rhand -5.3755 -5.65887
rfingers 7.12502
rthumb 20.4326 -34.6038
lclavicle -2.94326e-014 1.04362e-014
lhumerus -57.8001 18.0352 52.5165
lradius 21.6235
lwrist -13.374
lhand 1.03382 41.7118
lfingers 7.12502
lthumb 26.5802 69.8665
rfemur 0.630059 1.63836 29.6506
rtibia 19.0234
rfoot -25.2264 2.24232
rtoes -1.92347
lfemur -38.1923 5.35892 -12.6174
ltibia 16.0806
lfoot -6.88032 4.82314
ltoes -21.0232
211
root 3.4984 17.2391 -18.7439 -167.633 10.936 186.462
lowerback -1.48114 2.99538 2.1762
upperback 1.65107 3.97317 1.92383
thorax 2.53494 2.03573 0.906471
lowerneck -23.1324 -4.34075 -9.22798
upperneck 11.638 -4.77718 10.9221
head 7.86369 -1.55642 4.55565
rclavicle 6.31141e-015 6.01324e-015
rhumerus -66.1146 -7.99805 -47.4411
rradius 15.9092
rwrist 41.361
rhand -5.21954 -6.06017
rfingers 7.12502
rthumb 20.5825 -34.989
lclavicle 6.31141e-015 6.01324e-015
lhumerus -57.1226 18.0819 52.673
lradius 21.88
lwrist -13.4494
lhand 0.61383 41.2825
lfingers 7.12502
lthumb 26.1782 69.4975
rfemur 0.998701 1.46614 29.6777
rtibia 18.9323
rfoot -25.34 1.97527
rtoes -3.8645
lfemur -38.35 5.40221 -12.5762
ltibia 14.5714
lfoot -6.88428 4.45607
ltoes -20.4732
212
root 3.49915 17.2127 -18.9099 -167.369 11.1774 186.516
lowerback -1.57906 3.05025 2.06383
upperback 1.48884 4.04399 1.86249
thorax 2.41969 2.06558 0.907949
lowerneck -22.5978 -4.42834 -9.57415
upperneck 11.0862 -4.86271 11.4097
head 7.62824 -1.57945 4.76133
rclavicle 2.20185e-014 9.19379e-016
rhumerus -65.405 -8.89306 -47.2615
rradius 16.2478
rwrist 43.0512
rhand -2.94981 -6.15169
rfingers 7.12502
rthumb 22.7621 -34.8289
lclavicle 2.20185e-014 9.19379e-016
lhumerus -56.5508 18.1759 52.7492
lradius 21.9207
lwrist -13.3965
lhand 0.27802 41.3499
lfingers 7.12502
lthumb 25.8566 69.6121
rfemur 1.38209 1.30667 29.5793
rtibia 18.8542
rfoot -25.3171 2.03542
rtoes -4.50079
lfemur -38.6995 5.63404 -12.7679
ltibia 13.5184
lfoot -7.10935 4.04614
ltoes -20.0869
213
root 3.49479 17.1862 -19.0743 -167.009 11.3955 186.776
lowerback -1.49095 3.12061 2.17824
upperback 1.22792 4.14199 1.86782
thorax 2.10967 2.1133 0.837537
lowerneck -22.3664 -4.48791 -9.83448
upperneck 10.8915 -4.91177 11.6877
head 7.54799 -1.59436 4.89082
rclavicle -1.34646e-015 2.3792e-015
rhumerus -64.6731 -9.83011 -46.8104
rradius 15.8065
rwrist 46.3558
rhand -3.4319 -5.3012
rfingers 7.12502
rthumb 22.2994 -34.0345
lclavicle -1.34646e-015 2.3792e-015
lhumerus -55.8969 18.1221 53.0463
lradius 21.8459
lwrist -13.1397
lhand 0.138112 41.2617
lfingers 7.12502
lthumb 25.7227 69.5434
rfemur 1.67005 1.35849 29.6645
rtibia 18.7953
rfoot -25.3145 2.37303
rtoes -3.22801
lfemur -38.885 5.66387 -12.6362
ltibia 12.9991
lfoot -7.51532 4.07314
ltoes -18.5483
214
root 3.49218 17.1531 -19.235 -166.594 11.4739 187.486
lowerback -1.41086 3.23461 2.78868
upperback 0.983955 4.2979 2.00437
thorax 1.849 2.20014 0.63022
lowerneck -22.4761 -3.95691 -8.87612
upperneck 11.1523 -4.33727 10.7114
head 7.53366 -1.37402 4.47686
rclavicle 2.41958e-014 3.37934e-015
rhumerus -63.8152 -10.9555 -46.294
rradius 14.7925
rwrist 48.9256
rhand -4.44373 -4.89724
rfingers 7.12502
rthumb 21.3278 -33.7436
lclavicle 2.41958e-014 3.37934e-015
lhumerus -55.1332 17.7224 53.7247
lradius 22.0602
lwrist -12.6142
lhand 0.405315 41.4488
lfingers 7.12502
lthumb 25.9785 69.6932
rfemur 1.99383 1.63956 30.2809
rtibia 18.7658
rfoot -25.2101 2.56001
rtoes -1.57028
lfemur -39.2581 5.7203 -11.9911
ltibia 12.9015
lfoot -7.49351 4.42745
ltoes -17.9023
215
root 3.49528 17.1238 -19.4043 -166.464 11.6278 187.822
lowerback -1.32777 3.37722 3.02151
upperback 0.946048 4.49188 2.03003
thorax 1.78147 2.30065 0.527523
lowerneck -22.8588 -2.44155 -5.68975
upperneck 11.395 -2.75974 7.73351
head 7.40486 -0.769262 3.15109
rclavicle 1.87168e-014 2.54444e-014
rhumerus -62.8328 -12.6627 -45.5181
rradius 13.8152
rwrist 50.5278
rhand -3.27269 -5.35616
rfingers 7.12502
rthumb 22.4522 -34.0711
lclavicle 1.87168e-014 2.54444e-014
lhumerus -54.0039 17.4828 54.4814
lradius 22.1819
lwrist -12.2483
lhand 0.174172 41.6883
lfingers 7.12502
lthumb 25.7572 69.965
rfemur 2.64743 1.86207 30.5097
rtibia 18.614
rfoot -24.9856 2.56709
rtoes -1.42356
lfemur -39.6026 6.21596 -12.0844
ltibia 13.4022
lfoot -7.41005 4.46122
ltoes -18.8431
216
root 3.49401 17.0975 -19.5807 -166.538 11.8073 187.743
lowerback -1.40814 3.45436 2.85629
upperback 1.22253 4.58592 1.96624
thorax 2.10451 2.3492 0.574568
lowerneck -23.6871 -3.7431 -7.84596
upperneck 12.1257 -4.19909 9.78528
head 7.99162 -1.31604 4.0231
rclavicle 5.04416e-015 2.07233e-014
rhumerus -61.399 -14.4377 -45.2019
rradius 13.1566
rwrist 51.2299
rhand -5.19478 -4.28849
rfingers 7.12502
rthumb 20.6063 -33.2147
lclavicle 5.04416e-015 2.07233e-014
lhumerus -52.497 17.9594 55.0871
lradius 21.9789
lwrist -12.2787
lhand -0.96707 41.713
lfingers 7.12502
lthumb 24.6638 70.1436
rfemur 3.43073 1.87313 30.2587
rtibia 18.4612
rfoot -24.8599 2.56095
rtoes -2.43613
lfemur -39.8001 6.49066 -12.6301
ltibia 14.2682
lfoot -7.15077 4.64523
ltoes -18.2656
217
root 3.48427 17.0684 -19.7543 -166.5 11.8398 187.841
lowerback -1.57782 3.52605 2.89314
upperback 1.5221 4.67209 2.04283
thorax 2.5059 2.40015 0.661851
lowerneck -24.3302 -4.32027 -8.91895
upperneck 12.3557 -4.74362 10.5629
head 8.27746 -1.52371 4.39758
rclavicle -2.64632e-014 1.87603e-015
rhumerus -59.6641 -15.2737 -46.1672
rradius 12.8482
rwrist 50.9955
rhand -6.46391 -3.88471
rfingers 7.12502
rthumb 19.3863 -32.9383
lclavicle -2.64632e-014 1.87603e-015
lhumerus -51.069 18.6038 55.8231
lradius 22.0101
lwrist -12.6088
lhand -1.80581 41.6661
lfingers 7.12502
lthumb 23.8596 70.2041
rfemur 3.96141 1.74511 30.1684
rtibia 18.5193
rfoot -24.7326 2.66384
rtoes -3.63129
lfemur -40.0632 6.6139 -12.9944
ltibia 15.3032
lfoot -6.79216 5.15251
ltoes -17.1814
218
root 3.47152 17.0327 -19.9285 -166.404 11.886 188.095
lowerback -1.31243 3.67737 3.1617
upperback 0.918252 4.89663 2.10198
thorax 1.75558 2.50617 0.535064
lowerneck -22.7644 -4.36882 -9.46249
upperneck 12.223 -4.80581 10.7036
head 7.99818 -1.62196 4.52199
rclavicle 8.5465e-014 2.29161e-014
rhumerus -59.2862 -15.0518 -46.836
rradius 12.7642
rwrist 51.158
rhand -6.52219 -3.55066
rfingers 7.12502
rthumb 19.3303 -32.6099
lclavicle 8.5465e-014 2.29161e-014
lhumerus -50.862 17.8212 56.4038
lradius 22.1575
lwrist -12.6904
lhand -2.30189 41.2209
lfingers 7.12502
lthumb 23.3838 69.8204
rfemur 4.37886 1.67362 30.2306
rtibia 18.7538
rfoot -24.5762 2.74245
rtoes -4.85432
lfemur -40.2732 6.89691 -13.2803
ltibia 16.4207
lfoot -6.92362 5.47955
ltoes -17.6263
219
root 3.4637 16.9993 -20.1077 -166.37 12.1113 188.225
lowerback -1.38728 3.7492 3.25841
upperback 1.11309 4.97794 1.95291
thorax 2.02091 2.55041 0.34802
lowerneck -23.593 -4.34211 -9.16195
upperneck 12.2856 -4.76577 10.5845
head 8.14093 -1.57105 4.43893
rclavicle 3.70236e-015 -9.69075e-015
rhumerus -57.9546 -17.7327 -45.7395
rradius 12.344
rwrist 55.0573
rhand -5.37764 -3.06661
rfingers 7.12502
rthumb 20.4305 -32.0118
lclavicle 3.70236e-015 -9.69075e-015
lhumerus -49.1315 18.4696 56.6376
lradius 21.6928
lwrist -13.2514
lhand -2.65806 40.8557
lfingers 7.12502
lthumb 23.0421 69.4982
rfemur 4.83758 1.81869 30.1576
rtibia 19.1019
rfoot -24.466 2.80414
rtoes -5.60267
lfemur -40.3536 7.00348 -13.4909
ltibia 17.6254
lfoot -7.25984 5.77108
ltoes -15.8486
220
root 3.45986 16.9733 -20.2946 -166.381 12.4112 188.183
lowerback -1.51326 3.83867 3.06335
upperback 1.2533 5.08873 1.86722
thorax 2.22886 2.60422 0.388435
lowerneck -23.9655 -4.03442 -8.58911
upperneck 12.1456 -4.39758 10.1159
head 8.08858 -1.40568 4.23268
rclavicle 4.89507e-015 -3.47873e-015
rhumerus -56.7511 -20.0088 -45.0291
rradius 12.1833
rwrist 58.3181
rhand -4.59609 -2.78799
rfingers 7.12502
rthumb 21.1815 -31.6508
lclavicle 4.89507e-015 -3.47873e-015
lhumerus -47.5783 19.063 57.0929
lradius 21.4226
lwrist -13.5055
lhand -2.97008 41.1147
lfingers 7.12502
lthumb 22.7427 69.7943
rfemur 5.46762 2.15226 29.9058
rtibia 19.1055
rfoot -24.0675 2.96554
rtoes -6.05696
lfemur -40.772 6.81324 -13.7093
ltibia 19.6579
lfoot -7.49434 6.20679
ltoes -14.5554
